<!-- icon666.com - MILLIONS vector ICONS FREE --><svg viewBox="0 0 32 32" xmlns="http://www.w3.org/2000/svg"><g id="_40-User" data-name="40-User"><path d="m16 2a7 7 0 1 0 7 7 7 7 0 0 0 -7-7zm0 12a5 5 0 1 1 5-5 5 5 0 0 1 -5 5z"></path><path d="m21.17 18h-10.34a8.84 8.84 0 0 0 -8.83 8.83 3.17 3.17 0 0 0 3.17 3.17h21.66a3.17 3.17 0 0 0 3.17-3.17 8.84 8.84 0 0 0 -8.83-8.83zm5.66 10h-21.66a1.17 1.17 0 0 1 -1.17-1.17 6.83 6.83 0 0 1 6.83-6.83h10.34a6.83 6.83 0 0 1 6.83 6.83 1.17 1.17 0 0 1 -1.17 1.17z"></path></g></svg>